<?xml version="1.0" standalone="no"?>
<!DOCTYPE svg PUBLIC "-//W3C//DTD SVG 20010904//EN"
 "http://www.w3.org/TR/2001/REC-SVG-20010904/DTD/svg10.dtd">
<svg version="1.0" xmlns="http://www.w3.org/2000/svg"
 width="700.000000pt" height="821.000000pt" viewBox="0 0 700.000000 821.000000"
 preserveAspectRatio="xMidYMid meet">

<g transform="translate(0.000000,821.000000) scale(0.100000,-0.100000)"
fill="#000000" stroke="none">
<path d="M3871 8174 c-41 -53 -13 -114 52 -114 43 0 70 29 69 72 -2 65 -82 92
-121 42z m78 -28 c23 -28 -17 -68 -45 -45 -15 12 -19 41 -7 52 11 12 40 8 52
-7z"/>
<path d="M2227 7573 c-4 -3 -7 -21 -7 -39 0 -31 -2 -33 -37 -36 -52 -4 -52
-32 -1 -36 35 -3 37 -5 40 -40 2 -25 8 -37 18 -37 10 0 16 12 18 37 3 35 5 37
40 40 26 2 38 8 40 21 3 14 -4 17 -37 17 l-41 0 0 40 c0 38 -14 52 -33 33z"/>
<path d="M3497 7503 c-12 -12 -7 -50 8 -63 17 -14 51 -5 59 16 13 35 -41 73
-67 47z"/>
<path d="M5037 7494 c-4 -4 -7 -22 -7 -40 0 -31 -2 -33 -37 -36 -52 -4 -52
-32 -1 -36 35 -3 37 -5 40 -40 2 -25 8 -37 18 -37 10 0 16 12 18 37 3 35 5 37
40 40 25 2 37 8 37 18 0 10 -12 16 -37 18 -34 3 -37 5 -40 39 -3 35 -17 51
-31 37z"/>
<path d="M3418 6950 c-132 -40 -318 -309 -394 -568 -36 -125 -54 -258 -55
-412 l0 -135 -23 67 c-34 98 -88 190 -126 216 -118 80 -224 -53 -293 -368 -19
-91 -20 -133 -24 -926 l-4 -831 -45 -34 c-53 -39 -87 -82 -114 -141 -17 -37
-20 -67 -20 -219 0 -214 2 -217 109 -244 l70 -17 3 -148 c3 -140 4 -150 27
-174 13 -14 36 -28 52 -31 25 -6 29 -11 29 -38 0 -18 -9 -47 -20 -65 -25 -41
-25 -74 -2 -95 16 -14 43 -17 169 -17 133 0 152 2 166 18 23 25 21 60 -3 97
-11 17 -20 44 -20 62 0 27 4 32 30 38 16 4 41 20 55 37 23 27 25 38 25 117 l0
88 78 -18 c42 -10 96 -18 120 -19 l42 0 0 -57 c0 -41 -6 -67 -20 -88 -27 -41
-25 -70 6 -94 25 -20 40 -21 215 -21 122 0 197 4 214 12 37 16 43 53 17 102
-15 27 -22 59 -22 94 l0 52 43 0 c23 0 69 7 102 15 98 23 93 27 97 -74 3 -78
6 -93 27 -115 13 -14 36 -28 52 -31 25 -6 29 -11 29 -38 0 -18 -9 -47 -20 -65
-25 -41 -25 -74 -2 -95 16 -14 43 -17 169 -17 133 0 152 2 166 18 23 25 21 60
-3 97 -11 17 -20 44 -20 62 0 27 4 32 30 38 16 4 41 20 55 37 24 29 25 34 25
173 l0 143 67 16 c44 10 75 23 92 41 25 25 26 30 29 170 2 82 -1 168 -8 199
-14 69 -59 136 -126 189 l-53 42 -1 780 c0 806 -4 891 -42 1050 -29 118 -101
262 -147 292 -89 60 -173 -1 -236 -170 -15 -40 -31 -81 -35 -92 -5 -12 -9 42
-9 131 -1 238 -37 401 -130 592 -63 128 -119 211 -191 283 -79 80 -142 108
-202 89z m77 -44 c113 -47 271 -281 346 -509 58 -177 59 -198 58 -1052 l0
-780 -21 45 c-11 25 -38 99 -61 165 -39 118 -40 123 -47 310 -8 205 -30 338
-76 467 -70 193 -148 288 -238 288 -72 0 -125 -48 -186 -170 -79 -157 -117
-330 -129 -600 -8 -179 -10 -189 -49 -305 -22 -66 -49 -140 -60 -165 l-21 -45
0 786 c-1 872 -1 871 65 1068 76 228 233 455 345 500 33 13 35 13 74 -3z
m-693 -825 c66 -52 158 -321 158 -461 l0 -40 -206 0 -207 0 7 72 c16 161 81
349 143 416 36 37 69 41 105 13z m1400 0 c66 -52 158 -321 158 -461 l0 -40
-206 0 -207 0 7 72 c16 161 81 349 143 416 36 37 69 41 105 13z m-1232 -766
l0 -215 -215 0 -215 0 0 215 0 215 215 0 215 0 0 -215z m1400 0 l0 -215 -215
0 -215 0 0 215 0 215 215 0 215 0 0 -215z m-1400 -475 l0 -220 -215 0 -215 0
0 220 0 220 215 0 215 0 0 -220z m1400 0 l0 -220 -215 0 -215 0 0 220 0 220
215 0 215 0 0 -220z m-490 -330 c103 -204 213 -329 436 -496 83 -62 165 -130
183 -151 48 -58 61 -116 61 -277 -1 -155 -6 -170 -58 -185 l-30 -9 -4 156 c-6
233 -19 255 -263 437 -168 126 -263 220 -340 339 -95 147 -95 146 -95 308 l1
143 33 -90 c18 -49 52 -128 76 -175z m-781 -105 c-94 -165 -217 -296 -399
-425 -123 -87 -198 -159 -225 -215 -17 -33 -21 -68 -25 -205 l-5 -165 -25 3
c-14 2 -36 15 -48 29 -23 25 -24 31 -20 177 3 142 5 154 31 208 31 63 74 103
222 209 133 94 266 227 342 342 64 95 147 266 174 357 14 43 14 40 17 -98 l3
-143 -42 -74z m-129 121 c0 -50 -5 -62 -61 -146 -33 -50 -92 -122 -129 -160
l-69 -70 -86 0 -85 0 0 215 0 215 215 0 215 0 0 -54z m1400 -161 l0 -215 -84
0 -83 0 -79 83 c-44 45 -103 118 -132 162 -46 70 -52 85 -52 132 l0 53 215 0
215 0 0 -215z m-1234 -1122 c-6 -6 -640 137 -650 147 -15 15 -2 301 16 341 25
58 76 107 218 213 198 146 310 262 391 403 l24 42 3 -571 c1 -314 0 -573 -2
-575z m832 888 c42 -43 138 -123 212 -178 232 -172 250 -203 250 -433 l0 -136
-312 -69 c-172 -38 -321 -70 -330 -73 -17 -4 -18 28 -18 574 l0 578 60 -92
c34 -51 96 -127 138 -171z m-1359 -57 c-65 -48 -69 -49 -69 -9 l0 35 52 0 52
0 -35 -26z m1761 -10 c0 -39 1 -39 -64 8 l-39 28 51 0 52 0 0 -36z m-890 -420
c14 -37 12 -194 -5 -309 -8 -55 -15 -104 -16 -110 -1 -5 -7 22 -15 60 -21 110
-29 304 -15 348 15 43 37 48 51 11z m-700 -368 l185 -42 3 -86 c3 -83 2 -87
-24 -107 -25 -19 -39 -21 -191 -21 -161 0 -164 0 -188 25 -24 23 -25 29 -25
154 l0 131 28 -6 c15 -3 110 -24 212 -48z m1590 -80 c0 -182 7 -176 -217 -176
-161 0 -164 0 -189 25 -23 23 -25 31 -22 107 l3 83 205 46 c113 26 208 47 213
48 4 1 7 -59 7 -133z m-945 -49 c8 -54 19 -72 38 -64 9 3 18 26 22 56 l7 51
64 0 64 0 0 -57 c0 -41 7 -71 22 -101 20 -37 21 -44 8 -52 -8 -5 -97 -10 -196
-10 -208 0 -220 4 -184 62 14 24 20 50 20 96 l0 62 64 0 65 0 6 -43z m-565
-192 l0 -25 -105 0 -105 0 0 25 0 25 105 0 105 0 0 -25z m1400 0 l0 -25 -105
0 -105 0 0 25 0 25 105 0 105 0 0 -25z m-1376 -87 c20 -29 20 -54 0 -62 -32
-12 -240 -6 -258 7 -17 13 -17 15 -2 45 l17 32 114 0 c106 0 115 -1 129 -22z
m1400 0 c20 -29 20 -54 0 -62 -32 -12 -240 -6 -258 7 -17 13 -17 15 -2 45 l17
32 114 0 c106 0 115 -1 129 -22z"/>
<path d="M4397 6832 c-25 -28 -22 -87 5 -106 51 -36 118 -5 118 54 0 17 -9 39
-20 50 -26 26 -81 26 -103 2z m81 -55 c-4 -28 -38 -35 -55 -11 -11 15 -10 20
3 35 22 24 57 8 52 -24z"/>
<path d="M837 6763 c-12 -12 -7 -50 8 -63 32 -27 82 23 55 55 -13 15 -51 20
-63 8z"/>
<path d="M6437 6593 c-13 -13 -7 -61 9 -67 42 -16 74 16 54 54 -10 19 -49 27
-63 13z"/>
<path d="M1580 6290 c-20 -20 -27 -74 -12 -96 10 -15 47 -34 67 -34 25 0 65
46 65 75 0 33 -42 75 -75 75 -14 0 -34 -9 -45 -20z m71 -36 c9 -11 10 -20 3
-32 -15 -23 -29 -25 -48 -7 -12 12 -13 21 -6 36 13 23 33 25 51 3z"/>
<path d="M5330 5590 c-26 -26 -26 -81 0 -105 29 -26 79 -24 102 4 56 70 -39
164 -102 101z m77 -36 c7 -18 -6 -45 -24 -51 -6 -2 -18 3 -27 12 -12 12 -13
21 -6 36 13 23 48 25 57 3z"/>
<path d="M1057 5183 c-4 -3 -7 -21 -7 -39 0 -30 -3 -33 -35 -36 -46 -4 -46
-22 -1 -26 32 -3 35 -6 38 -40 2 -25 8 -38 20 -40 13 -2 17 5 20 35 3 36 5 38
41 41 23 2 37 8 37 17 0 9 -14 15 -37 17 -36 3 -38 5 -41 41 -3 34 -18 48 -35
30z"/>
<path d="M5246 4612 c-9 -26 2 -50 25 -57 27 -9 51 13 47 44 -2 21 -9 27 -35
29 -24 2 -33 -1 -37 -16z"/>
<path d="M1830 4305 c-26 -32 13 -81 48 -59 34 22 22 74 -18 74 -10 0 -23 -7
-30 -15z"/>
<path d="M5847 4224 c-4 -4 -7 -22 -7 -40 0 -31 -2 -33 -37 -36 -52 -4 -52
-32 -1 -36 35 -3 37 -5 40 -40 2 -25 8 -37 18 -37 10 0 16 12 18 37 3 35 5 37
40 40 25 2 37 8 37 18 0 10 -12 16 -37 18 -34 3 -37 5 -40 39 -3 35 -17 51
-31 37z"/>
<path d="M1016 3388 c-23 -32 -20 -71 7 -96 67 -63 163 30 102 98 -26 29 -89
27 -109 -2z m88 -35 c9 -22 -13 -45 -38 -41 -26 4 -33 38 -11 54 20 15 41 9
49 -13z"/>
<path d="M5716 3034 c-31 -30 -8 -69 36 -62 17 2 24 11 26 32 5 43 -32 61 -62
30z"/>
<path d="M6815 2975 c-28 -27 -30 -42 -14 -79 16 -34 58 -51 91 -35 26 11 48
46 48 75 0 24 -47 64 -75 64 -14 0 -37 -11 -50 -25z m79 -37 c8 -14 7 -21 -6
-34 -30 -30 -75 9 -48 42 16 18 39 15 54 -8z"/>
<path d="M3291 2871 c-70 -25 -101 -49 -131 -102 -49 -87 -28 -285 49 -454 54
-118 216 -345 247 -345 15 0 100 101 156 184 52 75 122 224 143 301 22 84 30
220 16 273 -15 55 -59 104 -119 133 -40 19 -67 23 -177 26 -108 3 -139 0 -184
-16z m287 -41 c76 -35 92 -131 43 -260 -23 -61 -101 -163 -143 -188 -28 -16
-28 -16 -82 37 -64 63 -100 125 -122 211 -27 106 -5 174 66 204 52 23 184 20
238 -4z m-348 -56 c-22 -56 -3 -180 39 -262 41 -81 153 -192 193 -192 35 0
146 125 186 208 34 71 37 84 37 169 0 87 1 91 18 76 69 -63 38 -301 -66 -496
-44 -84 -162 -247 -178 -247 -27 0 -144 168 -204 292 -57 119 -78 201 -79 308
-1 84 7 113 42 153 21 23 23 22 12 -9z"/>
<path d="M3390 2813 c-59 -22 -80 -83 -56 -167 18 -60 88 -146 119 -146 9 0
32 14 52 32 97 84 113 239 29 274 -33 14 -115 18 -144 7z"/>
<path d="M2680 2720 c-19 -4 -48 -23 -64 -41 -27 -30 -28 -36 -24 -104 4 -54
12 -84 33 -124 33 -59 105 -131 134 -131 29 0 126 111 145 166 18 55 21 142 5
177 -6 13 -24 32 -41 42 -35 20 -135 29 -188 15z m132 -40 c21 -6 44 -18 53
-26 22 -22 19 -109 -6 -164 -21 -48 -85 -120 -105 -120 -22 0 -92 90 -108 137
-32 93 -15 154 47 172 44 13 75 13 119 1z"/>
<path d="M4080 2720 c-19 -4 -48 -23 -64 -41 -27 -30 -28 -36 -24 -104 4 -54
12 -84 33 -124 33 -59 105 -131 134 -131 29 0 126 111 145 166 18 55 21 142 5
177 -6 13 -24 32 -41 42 -35 20 -135 29 -188 15z m132 -40 c21 -6 44 -18 53
-26 22 -22 19 -109 -6 -164 -21 -48 -85 -120 -105 -120 -22 0 -92 90 -108 137
-32 93 -15 154 47 172 44 13 75 13 119 1z"/>
<path d="M527 2583 c-14 -14 -6 -53 13 -63 28 -15 65 22 50 50 -10 19 -49 27
-63 13z"/>
<path d="M5050 1886 c-172 -47 -303 -193 -330 -371 -6 -38 -9 -80 -5 -92 5
-23 4 -24 -67 -37 -11 -3 -22 9 -34 36 -24 54 -89 116 -149 144 -40 19 -66 24
-130 23 -44 0 -89 -4 -100 -8 -16 -6 -25 1 -50 43 -43 72 -107 109 -196 114
-80 5 -140 -18 -187 -73 l-29 -33 -59 20 c-91 31 -191 22 -276 -24 l-64 -35
-34 39 c-45 54 -119 88 -193 88 -133 0 -241 -94 -254 -222 l-5 -53 -53 5 c-48
5 -55 9 -86 49 -42 54 -95 83 -164 89 -67 5 -118 -11 -166 -55 l-38 -34 -53
27 c-73 37 -172 44 -250 16 l-56 -20 -31 48 c-66 102 -182 178 -306 201 -187
35 -392 -68 -479 -239 l-25 -49 -53 18 c-66 23 -159 23 -220 1 -112 -41 -188
-125 -216 -241 -17 -68 -17 -68 -59 -80 -60 -15 -121 -73 -136 -128 l-11 -43
-157 0 c-125 0 -158 -3 -162 -14 -3 -8 -3 -17 0 -20 4 -3 84 -6 178 -6 l172 0
6 35 c9 54 44 103 90 127 33 17 52 19 99 14 48 -5 58 -3 58 9 0 9 -11 20 -25
25 -81 31 45 241 169 283 72 25 146 22 222 -9 36 -14 66 -24 68 -22 1 1 15 32
31 67 138 297 545 321 726 42 l28 -43 -28 -24 c-42 -35 -89 -132 -97 -198 -6
-53 -5 -58 12 -54 14 2 21 15 26 51 26 188 227 301 394 223 62 -29 66 -34 55
-74 -12 -39 11 -66 28 -33 6 11 11 25 11 32 0 27 54 89 94 109 80 38 166 22
224 -44 36 -41 37 -48 20 -76 -10 -15 -10 -22 0 -32 9 -9 17 -7 36 11 35 33
88 32 124 -2 45 -43 53 -36 46 41 -8 82 5 129 49 179 86 98 238 98 323 1 17
-19 36 -48 43 -66 15 -35 41 -43 41 -14 0 25 24 46 90 76 65 31 152 34 223 10
l46 -15 -2 -56 c-1 -35 2 -57 10 -60 12 -4 17 9 28 70 8 49 73 121 122 138 81
26 174 2 226 -61 41 -48 43 -68 11 -101 -20 -20 -25 -32 -17 -40 7 -7 24 -1
58 20 99 62 201 63 300 0 63 -40 130 -148 93 -149 -21 -1 -108 -69 -108 -85 0
-22 34 -18 55 5 56 62 214 96 310 66 34 -11 53 -12 60 -5 16 16 -20 37 -87 50
l-58 12 0 41 c0 96 45 209 111 281 90 97 195 140 328 133 109 -6 180 -37 260
-113 126 -120 163 -292 98 -453 -21 -53 -23 -64 -11 -69 30 -11 70 83 81 190
6 57 7 58 32 52 154 -39 293 -202 309 -363 6 -54 11 -67 25 -70 17 -3 18 3 16
55 l-3 58 44 23 c112 58 256 -19 278 -148 l8 -45 247 -3 c242 -2 247 -2 247
18 0 19 -6 20 -229 20 l-229 0 -11 45 c-13 52 -68 118 -121 145 -69 35 -139
34 -230 -4 -12 -5 -23 9 -43 53 -33 71 -112 162 -175 198 -24 15 -72 36 -105
48 -59 22 -60 23 -77 76 -49 157 -153 264 -301 310 -70 22 -180 24 -249 5z"/>
<path d="M5070 1771 c-76 -24 -190 -116 -190 -155 0 -30 20 -25 51 13 45 57
101 90 180 109 79 19 95 43 27 41 -24 0 -54 -4 -68 -8z"/>
<path d="M1500 1643 c-79 -27 -180 -112 -180 -151 0 -29 26 -20 71 26 62 64
123 93 205 100 54 4 64 8 64 23 0 16 -8 19 -57 19 -32 -1 -78 -8 -103 -17z"/>
<path d="M3436 1170 c-126 -45 -229 -137 -288 -258 -17 -37 -33 -68 -33 -70
-1 -1 -34 3 -72 10 -157 27 -306 -51 -382 -199 l-21 -43 -75 0 c-57 0 -75 -3
-75 -14 0 -16 43 -26 114 -26 59 0 70 6 81 40 22 70 97 149 173 182 58 26 138
33 199 19 l48 -12 0 -57 c0 -44 3 -57 15 -57 9 0 16 11 17 30 10 120 50 211
127 293 82 88 169 132 288 147 116 15 259 -37 354 -127 56 -52 114 -139 114
-168 0 -8 -16 -26 -35 -40 -33 -24 -47 -60 -24 -60 6 0 29 14 50 31 122 97
305 91 422 -12 75 -65 136 -209 89 -209 -25 0 -116 -46 -137 -70 -14 -16 -16
-23 -7 -32 9 -9 18 -7 39 9 103 75 216 79 308 9 78 -60 113 -177 81 -272 -13
-38 -13 -49 -4 -56 7 -4 53 -7 103 -6 76 3 90 6 93 20 3 16 -6 18 -76 18 l-80
0 10 37 c40 146 -71 315 -224 341 -39 7 -41 9 -58 65 -38 123 -131 218 -245
253 -61 18 -168 17 -220 -1 -22 -8 -41 -15 -41 -15 -1 0 -14 26 -30 58 -41 84
-135 174 -231 220 -74 35 -84 37 -193 40 -96 2 -125 -1 -174 -18z"/>
<path d="M3470 1053 c-25 -8 -58 -25 -75 -36 -77 -52 -147 -139 -127 -159 7
-7 33 14 83 65 77 77 116 98 217 113 26 4 42 12 42 20 0 19 -82 18 -140 -3z"/>
<path d="M5 1000 c-13 -21 11 -31 61 -28 36 2 49 7 49 18 0 19 -99 27 -110 10z"/>
<path d="M6875 1000 c-13 -21 8 -30 66 -30 52 0 60 2 57 18 -2 13 -15 18 -60
20 -32 2 -59 -2 -63 -8z"/>
<path d="M1004 959 c-66 -25 -132 -83 -166 -146 -28 -50 -49 -150 -41 -184 4
-13 0 -19 -13 -19 -32 0 -103 -41 -126 -72 -12 -17 -27 -47 -34 -67 -9 -28
-19 -37 -41 -41 -47 -9 -36 -35 15 -35 l43 0 18 53 c32 93 89 130 182 119 43
-5 49 -4 49 13 0 13 -10 21 -31 25 l-32 7 7 56 c19 162 141 275 296 276 150 0
275 -113 296 -268 l7 -45 -39 -10 c-55 -16 -72 -27 -57 -42 8 -8 24 -8 62 2
60 15 125 3 169 -32 31 -24 54 -10 34 21 -11 18 -8 23 34 50 84 53 189 59 273
15 63 -32 141 -143 141 -200 0 -34 10 -55 27 -55 12 0 14 11 11 49 -3 47 -1
50 23 55 35 7 90 -9 123 -35 32 -25 52 -62 61 -112 7 -37 8 -37 57 -37 42 0
49 3 46 18 -2 11 -14 18 -36 20 -25 3 -32 8 -32 24 0 38 -49 106 -94 133 -34
20 -56 25 -108 25 -63 0 -66 1 -77 29 -16 38 -76 94 -131 123 -53 27 -163 36
-227 19 -23 -6 -64 -27 -92 -46 -48 -33 -54 -35 -90 -25 -39 10 -51 32 -51 95
0 40 -60 143 -107 184 -89 79 -235 104 -349 60z"/>
<path d="M5825 821 c-70 -18 -136 -72 -170 -140 -37 -74 -25 -221 20 -229 15
-3 17 1 11 25 -4 15 -9 53 -12 83 -5 47 -1 63 23 110 96 187 365 139 401 -72
10 -59 37 -60 36 0 l-1 42 44 0 c79 0 138 -48 158 -127 l12 -48 59 0 c48 0 59
3 62 18 3 14 -4 17 -41 17 -44 0 -46 2 -57 38 -30 91 -101 141 -202 142 -32 0
-58 4 -58 10 0 18 -73 91 -111 111 -43 21 -130 32 -174 20z"/>
<path d="M2287 604 c-16 -16 10 -24 79 -24 59 0 74 3 74 15 0 12 -15 15 -73
15 -41 0 -77 -3 -80 -6z"/>
<path d="M2447 333 c-19 -19 -5 -33 33 -33 33 0 40 3 40 20 0 16 -7 20 -33 20
-19 0 -37 -3 -40 -7z"/>
</g>
</svg>
