<svg version="1.0" xmlns="http://www.w3.org/2000/svg"
    width="64.000000pt" height="64.000000pt" viewBox="0 0 64.000000 64.000000"
    preserveAspectRatio="xMidYMid meet">

    <g transform="translate(0.000000,64.000000) scale(0.100000,-0.100000)"
    fill="#1b3f81" stroke="none">
    <path d="M280 600 c-38 -53 -72 -144 -77 -205 -4 -47 -11 -66 -33 -90 -57 -62
    -66 -119 -27 -176 29 -43 57 -51 57 -16 0 39 31 68 81 77 86 16 159 -17 159
    -71 0 -38 17 -45 46 -18 46 43 44 135 -5 192 -21 24 -31 50 -40 107 -14 90
    -42 154 -83 198 -39 40 -51 40 -78 2z m80 -100 c24 -24 25 -47 3 -72 -18 -20
    -63 -24 -81 -6 -17 17 -15 64 4 82 21 22 50 20 74 -4z"/>
    <path d="M282 158 c-28 -14 -36 -45 -22 -83 27 -70 64 -82 104 -34 29 34 35
    89 13 108 -21 17 -69 22 -95 9z"/>
    </g>
</svg>
